<svg width="24" height="25" viewBox="0 0 24 25" fill="none" xmlns="http://www.w3.org/2000/svg">
<path d="M8.64195 1.00439L8.64196 1.00439C9.17383 0.827256 9.43477 0.938357 9.49125 0.988379C9.50652 1.0019 9.51618 1.01448 9.51563 1.05327C9.51491 1.10516 9.49146 1.21876 9.37103 1.38979L9.37102 1.38979C7.93626 3.42747 7.37097 5.08324 7.37281 7.32785C7.37936 15.3015 16.4493 19.7034 22.798 14.8407L22.494 14.4438L22.798 14.8407C23.0445 14.6519 23.2304 14.5695 23.3487 14.5436C23.4061 14.531 23.4361 14.5333 23.4488 14.5361C23.4582 14.549 23.485 14.595 23.4958 14.7103C23.5104 14.8666 23.489 15.1027 23.3958 15.4218C20.5793 25.0622 7.85599 26.9858 2.38111 18.6141C-0.326425 14.474 -0.0798655 8.62186 2.91788 4.99832C4.56619 3.00592 6.34274 1.77009 8.64195 1.00439ZM23.4564 14.5389C23.4563 14.5391 23.4546 14.5386 23.4519 14.5369C23.4552 14.5378 23.4566 14.5387 23.4564 14.5389Z" stroke="white"/>
</svg>
