<svg width="123" height="49" viewBox="0 0 123 49" fill="none" xmlns="http://www.w3.org/2000/svg">
<path class="dark:fill-white" fill-rule="evenodd" clip-rule="evenodd" d="M13.5044 17.8242L42.6298 41.2167H0.46875L13.5044 17.8242Z" fill="white"/>
<path class="dark:fill-white" fill-rule="evenodd" clip-rule="evenodd" d="M12.7412 7.76492L22.7171 1.35352C30.1043 14.5823 37.4756 27.783 44.8311 40.9558L12.7412 7.76492Z" fill="white"/>
<path class="dark:fill-white" fill-rule="evenodd" clip-rule="evenodd" d="M15.8934 13.5791L42.6294 41.2169L13.5039 17.8244L15.8934 13.5791Z" fill="#ACACAC"/>
<path class="dark:fill-white" fill-rule="evenodd" clip-rule="evenodd" d="M105.098 15.8174V27.5644H102.61V13.2714H102.981C107.067 13.2714 111.156 13.2714 115.242 13.2714C116.964 13.2714 118.38 12.5668 119.342 11.056C119.723 10.4545 119.96 9.7678 120.032 9.05283C120.105 8.33786 120.011 7.61531 119.76 6.9452C119.508 6.27509 119.105 5.67679 118.585 5.19999C118.064 4.72319 117.441 4.38168 116.768 4.20382C116.252 4.0635 115.722 3.99044 115.189 3.98633C111.481 3.96604 107.771 3.98633 104.063 3.97184C103.968 3.95991 103.872 3.98222 103.79 4.03502C103.709 4.08783 103.648 4.1679 103.617 4.26181C99.8983 11.925 96.1757 19.5871 92.4494 27.2483L92.2699 27.5528L78.9033 1.42293H79.2483C79.9382 1.42293 80.6309 1.47513 81.3153 1.42293C81.8762 1.36494 82.1174 1.61142 82.3586 2.09278C85.3146 8.01026 88.2827 13.9248 91.2631 19.8365C91.594 20.4919 91.9221 21.1501 92.2783 21.8664C92.3624 21.7069 92.427 21.6025 92.4774 21.4894C94.2359 17.769 96.0056 14.0515 97.7416 10.3194C99.0654 7.47477 100.35 4.60689 101.64 1.74481C101.673 1.63809 101.741 1.54652 101.832 1.48571C101.923 1.4249 102.031 1.39862 102.139 1.41133C106.692 1.42293 111.246 1.42293 115.8 1.41133C116.81 1.40292 117.813 1.5908 118.756 1.96519C119.579 2.27365 120.317 2.78387 120.907 3.45207C121.497 4.12026 121.922 4.92649 122.144 5.80159C122.703 7.60634 122.659 9.55312 122.018 11.3286C121.177 13.5498 119.654 15.0229 117.41 15.6289C116.859 15.7625 116.293 15.8229 115.727 15.8087C112.309 15.8261 108.893 15.8087 105.474 15.8087L105.098 15.8174Z" fill="white"/>
<path class="dark:fill-white" fill-rule="evenodd" clip-rule="evenodd" d="M68.0247 5.38113V5.69431C68.0247 9.7105 68.0247 13.7238 68.0247 17.74C68.0541 18.995 67.925 20.2486 67.6405 21.4691C66.8833 24.3921 65.1164 26.3059 62.2866 27.0976C59.841 27.7819 57.3534 27.8718 54.933 27.0976C52.0724 26.1696 50.3531 24.0905 49.7838 21.0254C49.5783 19.8195 49.4844 18.5961 49.5034 17.3717C49.5034 12.2024 49.5034 7.03304 49.5034 1.86371V1.44614H51.9882V1.83471C51.9882 7.45834 51.9929 13.0791 52.0022 18.6969C51.9579 20.1492 52.3932 21.5738 53.2363 22.7363C53.9842 23.7401 55.0424 24.4483 56.2343 24.7429C58.0846 25.2591 60.0442 25.17 61.8435 24.4878C63.9834 23.6729 65.136 21.9998 65.4417 19.6915C65.5085 19.124 65.5376 18.5523 65.5287 17.9807C65.5287 12.6103 65.5287 7.23989 65.5287 1.86951V1.44324C65.6465 1.44324 65.739 1.42584 65.8316 1.42584C66.9113 1.42584 67.9883 1.42584 69.0652 1.42584C69.1597 1.41421 69.2552 1.43674 69.3354 1.48959C69.4157 1.54244 69.4758 1.62237 69.5056 1.71582C72.3849 7.83821 75.2717 13.9577 78.1661 20.0743C78.8504 21.5242 79.5319 22.9741 80.2246 24.424C80.2699 24.5045 80.2938 24.5961 80.2938 24.6893C80.2938 24.7825 80.2699 24.8741 80.2246 24.9546C79.8348 25.7492 79.459 26.5553 79.0775 27.3556C79.0523 27.4049 79.0215 27.4542 78.9626 27.5615L68.092 5.37823L68.0247 5.38113Z" fill="white"/>
<path class="dark:fill-white" d="M50.5723 33.3408H53.6573C56.0748 33.3408 57.7043 34.9473 57.7043 37.2439C57.7043 39.5405 56.0748 41.1499 53.6573 41.1499H50.5723V33.3408ZM53.604 40.425C55.6093 40.425 56.905 39.1085 56.905 37.2352C56.905 35.362 55.6093 34.0455 53.604 34.0455H51.3603V40.425H53.604Z" fill="white"/>
<path class="dark:fill-white" d="M64.3369 33.3408H65.1362V41.1499H64.3369V33.3408Z" fill="white"/>
<path class="dark:fill-white" d="M77.7705 37.2355H78.5277V40.2222C77.7501 40.8902 76.7645 41.2436 75.754 41.2169C73.457 41.2169 71.7715 39.5321 71.7715 37.2442C71.7715 34.9563 73.4542 33.2715 75.7652 33.2715C76.9095 33.2715 77.9023 33.6514 78.5698 34.3995L78.0818 34.9157C77.7825 34.6106 77.4262 34.372 77.0346 34.2144C76.643 34.0568 76.2244 33.9837 75.8045 33.9993C73.9394 33.9993 72.568 35.3738 72.568 37.2355C72.568 39.0971 73.9394 40.4716 75.7932 40.4716C76.4979 40.4956 77.1912 40.2841 77.7705 39.8685V37.2355Z" fill="white"/>
<path class="dark:fill-white" d="M85.6455 33.3408H86.442V41.1499H85.6455V33.3408Z" fill="white"/>
<path class="dark:fill-white" d="M95.2262 34.0454H92.5703V33.332H98.6787V34.0454H96.0227V41.1498H95.2262V34.0454Z" fill="white"/>
<path class="dark:fill-white" d="M109.165 39.0621H104.958L104.049 41.1499H103.208L106.66 33.3408H107.449L110.901 41.1499H110.06L109.165 39.0621ZM108.884 38.3922L107.073 34.1992L105.247 38.3951L108.884 38.3922Z" fill="white"/>
<path class="dark:fill-white" d="M117.018 33.3408H117.817V40.425H122.046V41.1412H117.018V33.3408Z" fill="white"/>
<path class="dark:fill-white" d="M0.46875 43.6641H2.41512V44.07H0.934308V45.3111H2.30013V45.7084H0.934308V47.399H0.46875V43.6641Z" fill="#F8F9F9"/>
<path class="dark:fill-white" d="M4.15676 45.7197V46.0793H2.83301V45.7197H4.15676Z" fill="#F8F9F9"/>
<path class="dark:fill-white" d="M4.64123 46.9007C4.82812 47.0221 5.04319 47.0892 5.26384 47.095C5.606 47.095 5.76867 46.9181 5.76867 46.6948C5.76867 46.4715 5.63405 46.3353 5.28628 46.2019C4.81792 46.0308 4.59916 45.764 4.59916 45.4421C4.59916 45.0101 4.93851 44.6563 5.49382 44.6563C5.71705 44.6546 5.93705 44.7115 6.13326 44.8216L6.01547 45.1782C5.8552 45.0763 5.67079 45.0221 5.4826 45.0217C5.20214 45.0217 5.0507 45.1898 5.0507 45.387C5.0507 45.5842 5.20495 45.7089 5.5415 45.8423C5.99303 46.0192 6.22301 46.2512 6.22301 46.6513C6.22301 47.124 5.86963 47.4546 5.25263 47.4546C4.99847 47.459 4.74744 47.3961 4.52344 47.2719L4.64123 46.9007Z" fill="#F8F9F9"/>
<path class="dark:fill-white" d="M7.29186 45.9345C7.35636 45.8417 7.44611 45.7257 7.52183 45.6445L8.28467 44.7166H8.84559L7.85277 45.8185L8.99423 47.3989H8.43051L7.53585 46.1143L7.29466 46.3897V47.3989H6.8291V43.4639H7.29186V45.9345Z" fill="#F8F9F9"/>
<path class="dark:fill-white" d="M10.8757 47.3996L10.8364 47.0603C10.7445 47.1875 10.6245 47.2902 10.4865 47.3598C10.3484 47.4294 10.1963 47.4639 10.0427 47.4604C9.94088 47.468 9.8386 47.4538 9.74234 47.4185C9.64607 47.3833 9.5579 47.3279 9.48335 47.2557C9.40881 47.1835 9.34952 47.0962 9.30919 46.9992C9.26887 46.9022 9.24839 46.7976 9.24904 46.692C9.24904 46.0425 9.80995 45.6887 10.8084 45.6916V45.6452C10.8186 45.5622 10.8105 45.4779 10.7847 45.3986C10.7589 45.3193 10.716 45.2471 10.6593 45.1874C10.6026 45.1276 10.5336 45.082 10.4574 45.0538C10.3812 45.0256 10.2999 45.0156 10.2194 45.0246C9.98059 45.0256 9.74668 45.0949 9.54352 45.2247L9.43695 44.9028C9.69118 44.7457 9.98213 44.6635 10.2783 44.6651C11.072 44.6651 11.2627 45.2247 11.2627 45.7612V46.7645C11.2591 46.98 11.2742 47.1955 11.3076 47.4083L10.8757 47.3996ZM10.8056 46.0309C10.2895 46.0309 9.70618 46.115 9.70618 46.634C9.70203 46.6957 9.71071 46.7575 9.73165 46.8154C9.75259 46.8733 9.7853 46.9259 9.82757 46.9696C9.86983 47.0133 9.92068 47.0471 9.97666 47.0687C10.0327 47.0904 10.0925 47.0994 10.1521 47.0951C10.289 47.0985 10.4234 47.0568 10.5358 46.976C10.6483 46.8952 10.7329 46.7795 10.7775 46.6456C10.795 46.5953 10.8044 46.5424 10.8056 46.489V46.0251V46.0309Z" fill="#F8F9F9"/>
<path class="dark:fill-white" d="M12.5671 43.9453V44.7167H13.243V45.0878H12.5671V46.5377C12.5671 46.8712 12.6596 47.0597 12.9204 47.0597C13.015 47.0616 13.1094 47.0499 13.2009 47.0249L13.2233 47.3902C13.0894 47.4397 12.9476 47.4623 12.8054 47.4569C12.711 47.4627 12.6166 47.4472 12.5285 47.4117C12.4404 47.3762 12.3607 47.3214 12.295 47.2511C12.1514 47.0512 12.0863 46.8026 12.1127 46.5551V45.1052H11.7061V44.7167H12.1071V44.0729L12.5671 43.9453Z" fill="#F8F9F9"/>
<path class="dark:fill-white" d="M14.3423 43.9453V44.7167H15.0182V45.0878H14.3423V46.5377C14.3423 46.8712 14.4349 47.0597 14.6957 47.0597C14.7903 47.062 14.8848 47.0502 14.9762 47.0249L14.9986 47.3902C14.8646 47.4397 14.7228 47.4623 14.5807 47.4569C14.4863 47.4623 14.392 47.4467 14.3039 47.4112C14.2159 47.3757 14.1362 47.3211 14.0703 47.2511C13.929 47.0502 13.865 46.8021 13.8908 46.5551V45.1052H13.4785V44.7167H13.8824V44.0729L14.3423 43.9453Z" fill="#F8F9F9"/>
<path class="dark:fill-white" d="M16.8076 47.0566C16.9341 47.0641 17.061 47.0583 17.1863 47.0392C17.4585 47.0048 17.7135 46.8831 17.9155 46.6912C18.1722 46.4361 18.3357 46.097 18.3782 45.7314H18.3614C18.2623 45.8568 18.1367 45.9571 17.9942 46.0245C17.8518 46.0918 17.6962 46.1245 17.5396 46.1199C17.4006 46.123 17.2624 46.0962 17.1337 46.0414C17.0051 45.9866 16.8888 45.9049 16.7922 45.8015C16.6955 45.698 16.6206 45.575 16.5721 45.4402C16.5236 45.3054 16.5026 45.1616 16.5104 45.018C16.5047 44.8523 16.5313 44.6871 16.5887 44.5322C16.646 44.3773 16.7328 44.2359 16.8439 44.1163C16.9551 43.9968 17.0884 43.9015 17.2358 43.8363C17.3833 43.771 17.5419 43.737 17.7023 43.7363C18.4147 43.7363 18.855 44.3366 18.855 45.2558C18.8709 45.5649 18.8259 45.8742 18.7228 46.1648C18.6196 46.4554 18.4604 46.7213 18.2548 46.9464C17.9754 47.2158 17.6193 47.3846 17.2395 47.4277C17.0969 47.4529 16.9522 47.4626 16.8076 47.4567V47.0566ZM16.9787 44.9832C16.9689 45.0801 16.9789 45.1781 17.0081 45.2708C17.0374 45.3634 17.0852 45.4486 17.1484 45.5209C17.2117 45.5931 17.289 45.6507 17.3752 45.69C17.4615 45.7293 17.5548 45.7493 17.649 45.7488C17.7853 45.7528 17.9203 45.7201 18.0407 45.654C18.1611 45.588 18.2629 45.4907 18.3361 45.3718C18.3655 45.3179 18.38 45.2567 18.3782 45.1949C18.3782 44.5773 18.1594 44.1075 17.6658 44.1075C17.262 44.1075 16.9787 44.4845 16.9787 44.9832Z" fill="#F8F9F9"/>
<path class="dark:fill-white" d="M19.2842 47.399V47.109L19.6516 46.7378C20.5434 45.8679 20.9445 45.3982 20.9501 44.853C20.9597 44.7571 20.9482 44.6603 20.9165 44.5696C20.8849 44.479 20.8339 44.3969 20.7673 44.3295C20.7007 44.262 20.6203 44.211 20.532 44.1801C20.4437 44.1493 20.3499 44.1394 20.2574 44.1512C19.9841 44.1621 19.7228 44.2696 19.517 44.4557L19.3683 44.1107C19.6458 43.873 19.9952 43.7437 20.3555 43.7453C20.4941 43.7324 20.6337 43.7502 20.765 43.7975C20.8964 43.8448 21.0165 43.9205 21.1173 44.0195C21.2182 44.1186 21.2974 44.2387 21.3499 44.3719C21.4023 44.5052 21.4266 44.6484 21.4213 44.7921C21.4213 45.459 20.9557 45.9955 20.2209 46.7262L19.9404 46.993H21.5026V47.399H19.2842Z" fill="#F8F9F9"/>
<path class="dark:fill-white" d="M24.346 45.5603C24.346 46.784 23.9085 47.4596 23.1372 47.4596C22.4557 47.4596 21.9958 46.8014 21.9846 45.6096C21.9733 44.4178 22.4894 43.7363 23.1961 43.7363C23.9029 43.7363 24.346 44.412 24.346 45.5603ZM22.4557 45.6154C22.4557 46.552 22.7362 47.0827 23.1625 47.0827C23.6449 47.0827 23.8748 46.5027 23.8748 45.5806C23.8748 44.6585 23.6561 44.1133 23.1681 44.1133C22.7558 44.1133 22.4557 44.6353 22.4557 45.6154Z" fill="#F8F9F9"/>
<path class="dark:fill-white" d="M25.802 44.2531L25.1962 44.5895L25.1064 44.2183L25.8665 43.7979H26.2703V47.3994H25.802V44.2531Z" fill="#F8F9F9"/>
<path class="dark:fill-white" d="M29.5212 44.1424C29.4021 44.137 29.2828 44.1438 29.165 44.1627C28.8545 44.2079 28.5672 44.3581 28.348 44.59C28.1288 44.8219 27.99 45.1223 27.9534 45.4444H27.9703C28.1108 45.2616 28.304 45.1299 28.5218 45.0683C28.7397 45.0067 28.9708 45.0184 29.1817 45.1018C29.3927 45.1852 29.5725 45.3358 29.695 45.5319C29.8176 45.728 29.8765 45.9594 29.8634 46.1925C29.8717 46.3553 29.848 46.5182 29.7936 46.6713C29.7392 46.8243 29.6553 46.9644 29.547 47.0829C29.4387 47.2014 29.3082 47.2959 29.1635 47.3607C29.0187 47.4255 28.8628 47.4591 28.7051 47.4597C27.9591 47.4597 27.4711 46.8623 27.4711 45.9257C27.461 45.628 27.5081 45.3312 27.6097 45.0525C27.7113 44.7738 27.8653 44.5186 28.0628 44.3018C28.3688 44.0002 28.7638 43.8134 29.1847 43.7712C29.2987 43.7521 29.4141 43.7424 29.5296 43.7422V44.1424H29.5212ZM29.3866 46.2186C29.3866 45.7024 29.1061 45.3922 28.6686 45.3922C28.5275 45.3951 28.3898 45.438 28.2706 45.5162C28.1514 45.5944 28.0553 45.705 27.9927 45.8358C27.9554 45.9016 27.9369 45.9771 27.9394 46.0533C27.9394 46.6333 28.2199 47.0827 28.7051 47.0827C29.1117 47.0943 29.3866 46.7348 29.3866 46.2244V46.2186Z" fill="#F8F9F9"/>
<path class="dark:fill-white" d="M30.3927 46.839C30.6267 46.9816 30.8923 47.0595 31.1639 47.0651C31.7697 47.0651 31.9576 46.6679 31.952 46.3692C31.952 45.8646 31.5061 45.6472 31.0518 45.6472H30.7881V45.2818H31.0518C31.3939 45.2818 31.8286 45.0991 31.8286 44.6728C31.8286 44.3829 31.6519 44.1306 31.2172 44.1306C30.9679 44.138 30.7262 44.2207 30.5217 44.3684L30.3955 44.0146C30.6655 43.8282 30.9823 43.7274 31.307 43.7246C31.9941 43.7246 32.3054 44.1451 32.3054 44.5945C32.3016 44.7889 32.237 44.9768 32.1212 45.13C32.0054 45.2832 31.8447 45.3934 31.6632 45.4442C31.8785 45.4762 32.0755 45.5873 32.2181 45.7572C32.3608 45.927 32.4395 46.1443 32.44 46.3692C32.44 46.9492 32.0053 47.4508 31.1695 47.4508C30.8519 47.4552 30.539 47.371 30.2637 47.2072L30.3927 46.839Z" fill="#F8F9F9"/>
<path class="dark:fill-white" d="M34.272 45.7197V46.0793H32.9482V45.7197H34.272Z" fill="#F8F9F9"/>
<path class="dark:fill-white" d="M36.6612 44.1424C36.543 44.1371 36.4247 44.1439 36.3078 44.1627C35.9973 44.2079 35.71 44.3581 35.4908 44.59C35.2716 44.8219 35.1329 45.1223 35.0963 45.4444H35.1131C35.2536 45.2616 35.4468 45.1299 35.6646 45.0683C35.8825 45.0067 36.1136 45.0184 36.3245 45.1018C36.5355 45.1852 36.7153 45.3358 36.8378 45.5319C36.9604 45.728 37.0193 45.9594 37.0062 46.1925C37.0145 46.3553 36.9908 46.5182 36.9364 46.6713C36.882 46.8243 36.7981 46.9644 36.6898 47.0829C36.5815 47.2014 36.451 47.2959 36.3063 47.3607C36.1615 47.4255 36.0056 47.4591 35.8479 47.4597C35.1019 47.4597 34.6167 46.8623 34.6167 45.9257C34.6062 45.6282 34.6529 45.3316 34.754 45.0528C34.8551 44.7741 35.0086 44.5189 35.2056 44.3018C35.5117 44.0002 35.9066 43.8134 36.3275 43.7712C36.4406 43.7522 36.555 43.7425 36.6696 43.7422V44.1424H36.6612ZM36.5294 46.2186C36.5294 45.7024 36.2489 45.3922 35.8114 45.3922C35.6703 45.3954 35.5328 45.4384 35.4137 45.5166C35.2946 45.5948 35.1984 45.7052 35.1355 45.8358C35.0982 45.9016 35.0797 45.9771 35.0822 46.0533C35.0822 46.6333 35.3627 47.0827 35.8479 47.0827C36.2545 47.0943 36.5294 46.7348 36.5294 46.2244V46.2186Z" fill="#F8F9F9"/>
<path class="dark:fill-white" d="M38.4475 44.2531L37.8417 44.5895L37.752 44.2183L38.512 43.7979H38.913V47.3994H38.4587V44.2531H38.4475Z" fill="#F8F9F9"/>
<path class="dark:fill-white" d="M40.2844 46.839C40.5188 46.9808 40.7842 47.0586 41.0557 47.0651C41.6615 47.0651 41.8494 46.6679 41.8437 46.3692C41.8437 45.8646 41.3978 45.6472 40.9435 45.6472H40.6799V45.2818H40.9463C41.2884 45.2818 41.7232 45.0991 41.7232 44.6728C41.7232 44.3829 41.5465 44.1306 41.1146 44.1306C40.8643 44.1376 40.6215 44.2203 40.4162 44.3684L40.2928 44.0146C40.5624 43.8272 40.8795 43.7263 41.2043 43.7246C41.8886 43.7246 42.1999 44.1451 42.1999 44.5945C42.1966 44.7891 42.1321 44.9772 42.0163 45.1304C41.9004 45.2837 41.7394 45.3938 41.5577 45.4442C41.773 45.4762 41.97 45.5873 42.1127 45.7572C42.2553 45.927 42.3341 46.1443 42.3345 46.3692C42.3345 46.9492 41.8998 47.4508 41.0641 47.4508C40.7465 47.4547 40.4337 47.3706 40.1582 47.2072L40.2844 46.839Z" fill="#F8F9F9"/>
<path class="dark:fill-white" d="M42.9102 47.399V47.109L43.2804 46.7378C44.1694 45.8679 44.5733 45.3981 44.5789 44.853C44.5879 44.7572 44.5761 44.6606 44.5442 44.5703C44.5124 44.4799 44.4614 44.398 44.3949 44.3307C44.3285 44.2634 44.2483 44.2123 44.1602 44.1813C44.0722 44.1502 43.9785 44.1399 43.8861 44.1512C43.6128 44.1617 43.3513 44.2692 43.1457 44.4557L42.9971 44.1106C43.2737 43.8734 43.6221 43.7441 43.9815 43.7453C44.1202 43.7324 44.2599 43.7502 44.3914 43.7975C44.5229 43.8448 44.6431 43.9204 44.7442 44.0194C44.8453 44.1184 44.9248 44.2385 44.9775 44.3717C45.0303 44.5049 45.055 44.6482 45.05 44.7921C45.05 45.459 44.5817 45.9955 43.8469 46.7262L43.5664 46.993H45.1538V47.399H42.9102Z" fill="#F8F9F9"/>
</svg>
