<svg width="17" height="16" viewBox="0 0 17 16" fill="none" xmlns="http://www.w3.org/2000/svg">
<path d="M1.65513 10.9023L0.690164 14.7349C0.656876 14.875 0.658017 15.0202 0.693503 15.1598C0.72899 15.2995 0.797926 15.43 0.895276 15.542C0.992625 15.654 1.11593 15.7446 1.25618 15.8071C1.39643 15.8696 1.55008 15.9025 1.70591 15.9034C1.77852 15.9101 1.85169 15.9101 1.9243 15.9034L6.11427 15.0153L14.159 7.63994L9.66939 3.51758L1.65513 10.9023Z" fill="white"/>
<path d="M16.6887 3.94744L13.6923 1.18985C13.4953 1.00946 13.2287 0.908203 12.9508 0.908203C12.6729 0.908203 12.4063 1.00946 12.2093 1.18985L10.5435 2.72288L15.028 6.84992L16.6938 5.31688C16.7913 5.22671 16.8685 5.11974 16.921 5.00208C16.9735 4.88442 17.0003 4.75839 16.9999 4.63119C16.9994 4.50399 16.9717 4.37813 16.9183 4.2608C16.8649 4.14348 16.7869 4.03699 16.6887 3.94744Z" fill="white"/>
</svg>
