<svg width="15" height="20" viewBox="0 0 15 20" fill="none" xmlns="http://www.w3.org/2000/svg">
<path d="M3.90685 18.8817C6.66628 20.1097 9.9129 18.8627 11.1387 16.1041L14.5426 8.46274C14.5648 8.41295 14.5651 8.35695 14.5456 8.30616C14.5261 8.25536 14.4884 8.214 14.4386 8.19184L13.3576 7.71083C13.3083 7.689 13.2523 7.68761 13.2019 7.70695C13.1516 7.7263 13.1109 7.76482 13.0888 7.81407L9.68496 15.4554C9.26261 16.4045 8.49512 17.1316 7.52579 17.5039C6.55646 17.8762 5.49958 17.8498 4.5526 17.4267C3.60349 17.0043 2.87641 16.2368 2.50492 15.2696C2.13261 14.3003 2.15979 13.2455 2.58214 12.2964L6.05039 4.5065L6.61222 3.24396C7.13755 2.06344 8.52382 1.53099 9.70434 2.05632C10.2756 2.31051 10.7126 2.77169 10.9369 3.35583C11.1613 3.93997 11.1454 4.5751 10.8912 5.14632L7.45029 12.8747C7.36214 13.0689 7.20597 13.2187 7.00702 13.2951L7.00491 13.2959C6.80596 13.3723 6.59176 13.3648 6.39842 13.2787C6.20215 13.1914 6.05443 13.0344 5.97801 12.8355C5.90242 12.6386 5.90919 12.4223 5.99522 12.229L8.8086 5.91463C8.83076 5.86483 8.83111 5.80884 8.8116 5.75804C8.79209 5.70725 8.75435 5.66589 8.70455 5.64373L7.62363 5.16272C7.57428 5.14089 7.51829 5.1395 7.46792 5.15884C7.41754 5.17819 7.37688 5.2167 7.35484 5.26596L4.54439 11.5816C4.28499 12.1645 4.2689 12.8119 4.49732 13.4066C4.72574 14.0013 5.17397 14.4728 5.75398 14.7309C6.95793 15.2666 8.3709 14.7215 8.90747 13.5197L9.24037 12.7676L12.3462 5.79207C12.5577 5.3205 12.6735 4.81162 12.6869 4.29495C12.7002 3.77829 12.6109 3.26411 12.424 2.78225C12.0476 1.80234 11.3109 1.02882 10.353 0.602559C9.36078 0.162773 8.28371 0.166019 7.34401 0.526944C6.40431 0.887868 5.60199 1.60647 5.16139 2.59659L1.12919 11.6499C0.536893 12.9848 0.496976 14.4743 1.02129 15.8394C1.5443 17.2075 2.57107 18.2873 3.90685 18.8817Z" fill="#F8F8F8"/>
</svg>
